# xmcd
#
# Track frame offsets: 
#        150
#        11978
#        26466
#        45908
#        65952
#        80988
#        92453
#        106336
#        127647
#
# Disc length: 2272 seconds
#
# Revision: 0
# Processed by: cddbd v1.5.2PL0 Copyright (c) Steve Scherf et al.
# Submitted via: ExactAudioCopy v0.99pb4
#
DISCID=6b08de09
DTITLE=Juke Baritone - Juke Baritone
DYEAR=2007
DGENRE=Alt. Blues
TTITLE0=Fade Out
TTITLE1=O H!
TTITLE2=Ya Said Ya Loved Me
TTITLE3=Missed Me
TTITLE4=Oh Yeah
TTITLE5=Shadrack
TTITLE6=Lover
TTITLE7=Under The Umbrella
TTITLE8=Bill Hicks
EXTD=
EXTT0=
EXTT1=
EXTT2=
EXTT3=
EXTT4=
EXTT5=
EXTT6=
EXTT7=
EXTT8=
PLAYORDER=
